<?xml version="1.0" encoding="utf-8"?>
<!-- Generator: Adobe Illustrator 24.1.2, SVG Export Plug-In . SVG Version: 6.00 Build 0)  -->
<svg version="1.1" id="Livello_1" xmlns="http://www.w3.org/2000/svg" xmlns:xlink="http://www.w3.org/1999/xlink" x="0px" y="0px"
	 viewBox="0 0 350 80" style="enable-background:new 0 0 350 80;" xml:space="preserve">
<style type="text/css">
	.st0{fill:#E20613;}
	.st1{fill:#FCE2D7;}
</style>
<g>
	<path class="st0" d="M143.2,61.3c-1.14-1.22-1.67-3.27-1.61-6.14l0.18-12.32h-3.81v-2.91l3.9-0.76l0.67-6.72h3.54v6.72h6.5v3.67
		h-6.5v12.28c0,1.61,0.31,2.73,0.92,3.36c0.61,0.63,1.38,0.99,2.31,1.08l2.96,0.27v3.32h-3.63C146.14,63.14,144.33,62.53,143.2,61.3
		z"/>
	<path class="st0" d="M160.76,62.33c-1.52-0.72-2.65-1.96-3.38-3.74c-0.73-1.78-1.1-4.26-1.1-7.46c0-3.29,0.37-5.82,1.12-7.6
		c0.75-1.78,1.87-3,3.38-3.67c1.51-0.67,3.53-1.01,6.07-1.01c2.54,0,4.56,0.34,6.07,1.03c1.51,0.69,2.64,1.92,3.38,3.7
		c0.75,1.78,1.12,4.3,1.12,7.55c0,3.23-0.37,5.73-1.1,7.51c-0.73,1.78-1.85,3.02-3.36,3.72c-1.51,0.7-3.55,1.05-6.12,1.05
		C164.32,63.41,162.29,63.05,160.76,62.33z M170.37,59.13c0.85-0.4,1.49-1.22,1.93-2.46c0.43-1.24,0.65-3.1,0.65-5.58
		c0-2.48-0.22-4.34-0.65-5.58c-0.43-1.24-1.08-2.05-1.93-2.44c-0.85-0.39-2.02-0.58-3.52-0.58c-1.52,0-2.7,0.19-3.52,0.58
		c-0.82,0.39-1.45,1.2-1.88,2.44c-0.43,1.24-0.65,3.1-0.65,5.58c0,2.51,0.22,4.38,0.65,5.62c0.43,1.24,1.06,2.05,1.88,2.44
		c0.82,0.39,1.99,0.58,3.52,0.58C168.35,59.73,169.52,59.53,170.37,59.13z"/>
	<path class="st0" d="M184.67,61.57c-1.21-1.22-1.81-3.06-1.81-5.51V39.17h4.48v15.68c0,1.7,0.39,2.89,1.16,3.56
		c0.78,0.67,1.96,1.01,3.54,1.01c2.21,0,4.42-0.7,6.63-2.11V39.17h4.48v23.97h-3.58l-0.9-2.6c-2.99,1.91-5.9,2.87-8.74,2.87
		C187.63,63.41,185.88,62.8,184.67,61.57z"/>
	<path class="st0" d="M209.34,39.17h3.45l1.03,4.03c1.14-1.37,2.33-2.44,3.58-3.2c1.25-0.76,2.66-1.14,4.21-1.14
		c0.81,0,1.52,0.09,2.15,0.27v4.62c-0.96-0.15-1.85-0.22-2.69-0.22c-1.46,0-2.75,0.26-3.85,0.78c-1.11,0.52-2.24,1.35-3.41,2.49
		v16.36h-4.48V39.17z"/>
	<path class="st0" d="M227.49,61.8c-1.14-1.08-1.7-2.54-1.7-4.39v-1.88c0-1.91,0.65-3.44,1.95-4.59c1.3-1.15,3.2-1.72,5.71-1.72
		h7.48v-2.51c0-0.99-0.16-1.78-0.49-2.4c-0.33-0.61-0.92-1.08-1.77-1.41c-0.85-0.33-2.07-0.49-3.65-0.49h-7.35v-2.64
		c2.63-0.6,5.59-0.91,8.87-0.94c3.05,0,5.3,0.59,6.74,1.77c1.45,1.18,2.17,3.11,2.17,5.8v16.76h-3.54l-0.76-2.69
		c-0.27,0.24-0.9,0.6-1.9,1.08c-1,0.48-2.17,0.91-3.49,1.3c-1.33,0.39-2.62,0.58-3.88,0.58C230.08,63.41,228.62,62.87,227.49,61.8z
		 M236.63,59.76c1.02-0.25,1.96-0.54,2.85-0.85c0.88-0.31,1.37-0.5,1.46-0.56v-6.9l-6.27,0.27c-2.9,0.18-4.35,1.46-4.35,3.85v1.08
		c0,1.23,0.36,2.11,1.08,2.67c0.72,0.55,1.6,0.83,2.64,0.83C234.75,60.14,235.61,60.01,236.63,59.76z"/>
	<path class="st0" d="M256.03,60.76l-0.81,2.37h-3.67V28.95h4.48v12.23c1.17-0.66,2.43-1.21,3.79-1.66c1.36-0.45,2.59-0.67,3.7-0.67
		c2.99,0,5.16,0.96,6.52,2.89c1.36,1.93,2.04,5.13,2.04,9.61c0,3.94-0.67,6.94-2.02,8.98c-1.34,2.05-3.45,3.07-6.32,3.07
		C261.02,63.41,258.45,62.53,256.03,60.76z M267.59,51.13c0-2.33-0.23-4.12-0.69-5.38c-0.46-1.25-1.08-2.11-1.86-2.55
		c-0.78-0.45-1.73-0.67-2.87-0.67c-1.11,0-2.14,0.16-3.11,0.47s-1.98,0.75-3.02,1.32v13.67c0.99,0.51,1.96,0.92,2.94,1.23
		c0.97,0.31,2.04,0.47,3.2,0.47C265.79,59.69,267.59,56.84,267.59,51.13z"/>
	<path class="st0" d="M277.58,34.93c-0.15-0.13-0.22-0.32-0.22-0.56v-3.76c0-0.54,0.27-0.81,0.81-0.81h3.32
		c0.24,0,0.42,0.07,0.54,0.22c0.12,0.15,0.18,0.34,0.18,0.58v3.76c0,0.51-0.24,0.76-0.72,0.76h-3.32
		C277.93,35.13,277.73,35.07,277.58,34.93z M277.54,39.17h4.48v23.97h-4.48V39.17z"/>
	<path class="st0" d="M289.93,61.39c-1.09-1.19-1.64-3.18-1.64-5.96V28.95h4.48v25.9c0,1.76,0.25,2.97,0.74,3.63
		c0.49,0.66,1.28,1.06,2.35,1.21l2.24,0.27v3.23h-3.14C292.7,63.18,291.02,62.59,289.93,61.39z"/>
	<path class="st0" d="M301.78,34.93c-0.15-0.13-0.22-0.32-0.22-0.56v-3.76c0-0.54,0.27-0.81,0.81-0.81h3.32
		c0.24,0,0.42,0.07,0.54,0.22c0.12,0.15,0.18,0.34,0.18,0.58v3.76c0,0.51-0.24,0.76-0.72,0.76h-3.32
		C302.13,35.13,301.93,35.07,301.78,34.93z M301.74,39.17h4.48v23.97h-4.48V39.17z"/>
	<path class="st0" d="M315.36,61.3c-1.14-1.22-1.67-3.27-1.61-6.14l0.18-12.32h-3.81v-2.91l3.9-0.76l0.67-6.72h3.54v6.72h6.5v3.67
		h-6.5v12.28c0,1.61,0.31,2.73,0.92,3.36c0.61,0.63,1.38,0.99,2.31,1.08l2.96,0.27v3.32h-3.63C318.3,63.14,316.5,62.53,315.36,61.3z
		"/>
	<path class="st0" d="M338.93,63.14c-1.55-0.03-2.91-0.51-4.08-1.43c-1.16-0.93-2.03-2.4-2.6-4.44l-5.38-18.1h4.71l4.84,17.16
		c0.66,2.03,1.78,3.05,3.36,3.05l5.6-20.21H350l-8.25,30.16l-2.15,4.44h-3.58L338.93,63.14z"/>
</g>
<g>
	<g>
		<line class="st0" x1="60.55" y1="61.29" x2="60.55" y2="14.46"/>
		<path class="st0" d="M60.55,64.35c-1.69,0-3.05-1.37-3.05-3.05V14.46c0-1.69,1.37-3.05,3.05-3.05s3.05,1.37,3.05,3.05V61.3
			C63.61,62.98,62.24,64.35,60.55,64.35z"/>
	</g>
</g>
<g>
	<g>
		<line class="st0" x1="60.55" y1="61.29" x2="96.9" y2="31.75"/>
		<path class="st0" d="M60.56,64.35c-0.89,0-1.77-0.38-2.37-1.13c-1.06-1.31-0.86-3.23,0.44-4.29l36.35-29.54
			c1.31-1.06,3.23-0.87,4.29,0.44c1.06,1.31,0.86,3.23-0.44,4.29L62.48,63.66C61.91,64.12,61.23,64.35,60.56,64.35z"/>
	</g>
</g>
<g>
	<g>
		<line class="st0" x1="60.55" y1="61.29" x2="24.25" y2="31.69"/>
		<path class="st0" d="M60.55,64.35c-0.68,0-1.36-0.22-1.93-0.69l-36.3-29.6c-1.31-1.07-1.5-2.99-0.44-4.29
			c1.07-1.31,2.99-1.5,4.29-0.44l36.3,29.6c1.31,1.07,1.5,2.99,0.44,4.29C62.32,63.96,61.44,64.35,60.55,64.35z"/>
	</g>
</g>
<circle class="st1" cx="60.55" cy="11.27" r="7.28"/>
<circle class="st0" cx="60.55" cy="11.27" r="3.19"/>
<circle class="st1" cx="101.62" cy="27.35" r="7.28"/>
<circle class="st0" cx="101.62" cy="27.35" r="3.19"/>
<g>
	<g>
		<line class="st0" x1="60.55" y1="61.29" x2="107.39" y2="61.02"/>
		<path class="st0" d="M60.55,64.35c-1.68,0-3.04-1.35-3.05-3.03c-0.01-1.69,1.35-3.06,3.03-3.07l46.84-0.27
			c1.69-0.02,3.06,1.35,3.07,3.03c0.01,1.69-1.35,3.06-3.03,3.07l-46.84,0.27C60.57,64.35,60.56,64.35,60.55,64.35z"/>
	</g>
</g>
<circle class="st1" cx="113.82" cy="60.55" r="7.28"/>
<circle class="st0" cx="113.82" cy="60.55" r="3.19"/>
<g>
	<g>
		<line class="st0" x1="60.55" y1="61.29" x2="13.71" y2="61.14"/>
		<path class="st0" d="M60.55,64.35c0,0-0.01,0-0.01,0L13.7,64.19c-1.69-0.01-3.05-1.38-3.04-3.06c0.01-1.68,1.37-3.04,3.05-3.04
			c0,0,0.01,0,0.01,0l46.84,0.16c1.69,0.01,3.05,1.38,3.04,3.06C63.6,62.99,62.23,64.35,60.55,64.35z"/>
	</g>
</g>
<circle class="st1" cx="7.28" cy="61.56" r="7.28"/>
<circle class="st0" cx="7.28" cy="61.56" r="3.19"/>
<circle class="st1" cx="21.07" cy="28.93" r="7.28"/>
<circle class="st0" cx="21.07" cy="28.93" r="3.19"/>
<circle class="st1" cx="60.55" cy="61.29" r="11.71"/>
<circle class="st0" cx="60.55" cy="61.29" r="5.12"/>
</svg>
